# xmcd
#
# Track frame offsets: 
#        150
#        23392
#        47654
#        78426
#        115318
#        183590
#        230502
#        263352
#        296284
#
# Disc length: 4718 seconds
#
# Revision: 0
# Processed by: cddbd v1.5.2PL0 Copyright (c) Steve Scherf et al.
# Submitted via: ExactAudioCopy v1.0b1
#
DISCID=68126c09
DTITLE=Various Artist - NoBoB Blues
DYEAR=2012
DGENRE=Blues
TTITLE0=B. B. King - The Thrill Is Gone
TTITLE1=Mike Bloomfield, Al Kooper, and S - Really
TTITLE2=Muddy Waters and The Rolling Ston - Champagne And Reefer
TTITLE3=Jimi Hendrix - Red House
TTITLE4=Albert King and Stevie Ray Vaugha - Blues at Sunrise
TTITLE5=The Allman Brothers Band - Stormy Monday
TTITLE6=Joe Bonamassa - Blues Deluxe
TTITLE7=Led Zeppelin - Since I've Been Loving You
TTITLE8=Boz Scaggs - Loan Me A Dime
EXTD=
EXTT0=
EXTT1=
EXTT2=
EXTT3=
EXTT4=
EXTT5=
EXTT6=
EXTT7=
EXTT8=
PLAYORDER=
